<svg xmlns="http://www.w3.org/2000/svg" xmlns:xlink="http://www.w3.org/1999/xlink" width="276" height="13" version="1.1" viewBox="0 0 276 13"><title>share-header</title><description>Created with Sketch (http://www.bohemiancoding.com/sketch)</description><g id="Page-1" fill="none" fill-rule="evenodd" stroke="none" stroke-width="1"><rect id="Background" width="276" height="13" x="0" y="0" fill="#EEE"/><g id="Buttons" transform="translate(88.000000, 2.000000)"><rect id="Button-bg" width="100" height="9" x="0" y="0" fill="#F5F9FF" stroke="#E7ECF4"/><text id="THIS" fill="#CFD6E0" font-family="Helvetica" font-size="4" font-weight="normal"><tspan x="6" y="6">THIS</tspan></text><path id="Button-splitters" stroke="#E7ECF4" stroke-linecap="square" d="M19.5,0.5 L19.5,9.5 M37.5,0.5 L37.5,9.5 M61.5,0.5 L61.5,9.5 M80.5,0.5 L80.5,9.5"/><text id="KISS" fill="#CFD6E0" font-family="Helvetica" font-size="4" font-weight="normal"><tspan x="24" y="6">KISS</tspan></text><text id="JamFace" fill="#CFD6E0" font-family="Helvetica" font-size="4" font-weight="normal"><tspan x="42" y="6">JamFace</tspan></text><text id="Coslaw" fill="#CFD6E0" font-family="Helvetica" font-size="4" font-weight="normal"><tspan x="65" y="6">Coslaw</tspan></text><text id="Danmit!" fill="#CFD6E0" font-family="Helvetica" font-size="4" font-weight="normal"><tspan x="84" y="6">Danmit!</tspan></text></g><g id="Dave" transform="translate(4.000000, 1.000000)"><rect id="Rectangle-3" width="8" height="2" x="0" y="0" fill="#A2B3BA"/><rect id="Rectangle-3" width="8" height="5" x="0" y="5" fill="#A2B3BA"/><rect id="Rectangle-5" width="6" height="3" x="1" y="2" fill="#6F6C6C"/><circle id="Oval-1" cx="2.5" cy="3.5" r=".5" fill="#41C7F2" stroke="#41C7F2" stroke-opacity=".176"/><circle id="Oval-1" cx="5.5" cy="3.5" r=".5" fill="#41C7F2" stroke="#41C7F2" stroke-opacity=".176"/><rect id="Rectangle-6" width="3" height="3" x="4" y="6" fill="#EEDC5A"/></g><text id="Bins" fill="#AEB5BE" font-family="Helvetica" font-size="5" font-weight="normal"><tspan x="17" y="8">Bins</tspan></text><text id="Help" fill="#AEB5BE" font-family="Helvetica" font-size="5" font-weight="normal"><tspan x="261" y="8">Help</tspan></text><text id="Blog" fill="#AEB5BE" font-family="Helvetica" font-size="5" font-weight="normal"><tspan x="246" y="8">Blog</tspan></text></g></svg>